C:\My Captures\DataSMARTClinic\0004~001 ID\0004~aa~STRATO_01\Standing_STRATO_ID_01.mot
version=1
nRows=106
nColumns=10
inDegrees=yes

BTS OpenSim export

endheader
time	[P0]_force_vx	[P0]_force_vy	[P0]_force_vz	[P0]_force_px	[P0]_force_py	[P0]_force_pz	[P0]_torque_x	[P0]_torque_y	[P0]_torque_z
0.000000	-1.32489848	659.29620361	4.57821417	0.85347366	0.00204066	0.20191282	0.00481497	-0.97144955	-0.00029501
0.004000	-1.85957086	659.29119873	5.11955214	0.85324478	0.00203952	0.20193318	0.00467501	-0.94321126	-0.00028644
0.008000	-1.85827339	659.02941895	5.11947298	0.85333264	0.00203993	0.20199706	0.00467331	-0.94286901	-0.00028633
0.012000	-1.85694540	658.76147461	5.11939144	0.85300028	0.00203822	0.20219465	0.00468279	-0.94478202	-0.00028692
0.016000	-1.85774338	658.23962402	4.58127975	0.85296369	0.00203809	0.20204526	0.00386120	-0.77902013	-0.00023658
0.020000	-1.85226190	658.49963379	5.65738726	0.85308826	0.00203864	0.20227708	0.00409436	-0.82606286	-0.00025086
0.024000	-1.85902357	658.49792480	4.58135843	0.85287863	0.00203761	0.20224112	0.00527225	-1.06370914	-0.00032303
0.028000	-1.32223248	658.75830078	4.57805109	0.85259986	0.00203621	0.20230873	0.00483775	-0.97604442	-0.00029641
0.032000	-0.78506571	658.23541260	4.03655338	0.85258257	0.00203609	0.20242034	0.00445066	-0.89794767	-0.00027269
0.036000	-1.86237824	658.49182129	4.04340315	0.85245812	0.00203549	0.20235643	0.00445939	-0.89970881	-0.00027323
0.040000	-1.32301235	658.23278809	4.03993797	0.85256416	0.00203599	0.20242046	0.00401708	-0.81046963	-0.00024613
0.044000	-1.31960726	658.22863770	4.57789040	0.85235465	0.00203491	0.20257071	0.00484559	-0.97762686	-0.00029689
0.048000	-0.78504604	658.23144531	4.03655243	0.85237288	0.00203501	0.20255220	0.00445627	-0.89907855	-0.00027304
0.052000	-0.77306253	657.17950439	5.11213923	0.85209036	0.00203355	0.20272072	0.00470344	-0.94894695	-0.00028818
0.056000	-0.78370804	657.96148682	4.03647041	0.85183024	0.00203226	0.20275107	0.00446903	-0.90165329	-0.00027382
0.060000	-1.31566358	657.43298340	4.57764864	0.85177571	0.00203194	0.20290023	0.00486132	-0.98080164	-0.00029785
0.064000	-0.77901542	657.69763184	4.57434320	0.85191774	0.00203263	0.20296498	0.00529424	-1.06814528	-0.00032438
0.068000	-1.31098068	657.17108154	5.11552238	0.85186338	0.00203235	0.20298311	0.00427677	-0.86286455	-0.00026204
0.072000	-0.77639985	657.16992188	4.57418299	0.85167170	0.00203137	0.20309666	0.00530119	-1.06954813	-0.00032481
0.076000	-0.77977413	657.16784668	4.03622913	0.85146022	0.00203032	0.20308013	0.00448010	-0.90388805	-0.00027450
0.080000	-0.77976561	657.16613770	4.03622866	0.85146165	0.00203029	0.20321032	0.00448168	-0.90420526	-0.00027459
0.084000	-0.77639109	657.16815186	4.57418251	0.85167313	0.00203133	0.20322686	0.00530277	-1.06986511	-0.00032490
0.088000	-0.77508271	656.90417480	4.57410240	0.85154921	0.00203070	0.20329337	0.00530627	-1.07057214	-0.00032512
0.092000	-0.23972230	657.42864990	4.57087612	0.85139418	0.00202993	0.20329422	0.00487131	-0.98281723	-0.00029847
0.096000	-1.31300962	656.89758301	4.57748604	0.85132074	0.00202953	0.20342562	0.00487626	-0.98381418	-0.00029877
0.100000	-0.78103471	657.42218018	4.03630638	0.85116583	0.00202876	0.20340794	0.00448973	-0.90582985	-0.00027509
0.104000	-0.23581924	656.64117432	4.57063723	0.85144508	0.00203012	0.20349011	0.00487314	-0.98318636	-0.00029858
0.108000	-0.23918501	656.63732910	4.03268290	0.85123479	0.00202905	0.20360386	0.00546116	-1.10182285	-0.00033461
0.112000	-0.23450087	656.37518311	4.57055616	0.85111082	0.00202845	0.20355760	0.00488139	-0.98485088	-0.00029908
0.116000	-0.77842879	656.89642334	4.03614664	0.85112906	0.00202854	0.20353921	0.00589989	-1.19033754	-0.00036149
0.120000	0.29629776	657.16174316	4.02945566	0.85108000	0.00202828	0.20360447	0.00449343	-0.90657747	-0.00027531
0.124000	-0.23578928	656.63513184	4.57063532	0.85102493	0.00202800	0.20362312	0.00488424	-0.98542434	-0.00029926
0.128000	-0.77634299	657.15844727	4.57417965	0.85125464	0.00202914	0.20362124	0.00531669	-1.07267404	-0.00032575
0.132000	-0.77635264	657.16040039	4.57418013	0.85146445	0.00203018	0.20362040	0.00531213	-1.07175422	-0.00032548
0.136000	-0.78492987	658.20800781	4.03654528	0.85132766	0.00202955	0.20347154	0.00448743	-0.90536642	-0.00027495
0.140000	-0.78362268	657.94427490	4.03646517	0.85141480	0.00202992	0.20366727	0.00448818	-0.90551698	-0.00027499
0.144000	-1.31558704	657.41754150	4.57764387	0.85114896	0.00202863	0.20355663	0.00488125	-0.98482096	-0.00029907
0.148000	-0.78154564	658.20812988	4.57449818	0.85153866	0.00203055	0.20361911	0.00531050	-1.07142615	-0.00032538
0.152000	-1.31819510	657.94372559	4.57780361	0.85160762	0.00203087	0.20368390	0.00487252	-0.98306006	-0.00029854
0.156000	-0.78025812	657.94836426	4.57441950	0.85162616	0.00203100	0.20355266	0.00530779	-1.07087886	-0.00032521
0.160000	-0.78025812	657.94836426	4.57441950	0.85162616	0.00203100	0.20355266	0.00530779	-1.07087886	-0.00032521
0.164000	-0.25156742	658.47729492	3.49528742	0.85189146	0.00203233	0.20351385	0.00549768	-1.10919070	-0.00033684
0.168000	-0.78494227	658.21051025	4.03654575	0.85174960	0.00203160	0.20359883	0.00501425	-1.01165450	-0.00030722
0.172000	-0.78494227	658.21051025	4.03654575	0.85174960	0.00203160	0.20359883	0.00588882	-1.18810439	-0.00036081
0.176000	-0.78156680	658.21240234	4.57449961	0.85195923	0.00203263	0.20361640	0.00530135	-1.06957996	-0.00032481
0.180000	-0.78626066	658.47650146	4.03662682	0.85208261	0.00203327	0.20353152	0.00447381	-0.90261859	-0.00027411
0.184000	-0.78754938	658.73651123	4.03670549	0.85199654	0.00203282	0.20359685	0.00588410	-1.18715203	-0.00036052
0.188000	-1.31952429	658.21191406	4.57788515	0.85215187	0.00203359	0.20361464	0.00486004	-0.98054296	-0.00029778
0.192000	-0.78496313	658.21472168	4.03654718	0.85217011	0.00203368	0.20359613	0.00447294	-0.90244293	-0.00027406
0.196000	-0.79095566	658.74090576	3.49875379	0.85241663	0.00203491	0.20357578	0.00505292	-1.01945686	-0.00030959
0.200000	-0.78627181	658.47875977	4.03662729	0.85229349	0.00203432	0.20352964	0.00446978	-0.90180469	-0.00027386
0.204000	-0.78628153	658.48071289	4.03662777	0.85250294	0.00203535	0.20352882	0.00446579	-0.90099931	-0.00027362
0.208000	-0.78499281	658.22070313	4.03654909	0.85258925	0.00203580	0.20346344	0.00446334	-0.90050626	-0.00027347
0.212000	-1.32293940	658.21807861	4.03993368	0.85257083	0.00203571	0.20346354	0.00402698	-0.81246710	-0.00024673
0.216000	-0.78499281	658.22070313	4.03654909	0.85258925	0.00203580	0.20346344	0.00446334	-0.90050626	-0.00027347
0.220000	-0.78369439	657.95874023	4.03646946	0.85246599	0.00203521	0.20339881	0.00446489	-0.90081900	-0.00027356
0.224000	-1.31826651	657.95812988	4.57780790	0.85265875	0.00203616	0.20341544	0.00484712	-0.97793663	-0.00029698
0.228000	-1.32048643	657.69854736	4.03977680	0.85295612	0.00203762	0.20346083	0.00489429	-0.98745227	-0.00029987
0.232000	-1.85712469	657.43188477	4.04308128	0.85281444	0.00203690	0.20352748	0.00446074	-0.89998043	-0.00027331
0.236000	-1.32048643	657.69854736	4.03977680	0.85295612	0.00203762	0.20346083	0.00489429	-0.98745227	-0.00029987
0.240000	-1.85375893	657.43572998	4.58103561	0.85302436	0.00203797	0.20341387	0.00527725	-1.06471801	-0.00032334
0.244000	-1.85634637	657.95776367	4.58119440	0.85306096	0.00203812	0.20354396	0.00527737	-1.06474066	-0.00032335
0.248000	-0.78502488	658.22717285	4.03655100	0.85322070	0.00203893	0.20345885	0.00445128	-0.89807200	-0.00027273
0.252000	-1.31919777	657.43853760	4.03969765	0.85304266	0.00203807	0.20339535	0.00489201	-0.98699290	-0.00029973
0.256000	-1.85843313	657.69586182	4.04316139	0.85293770	0.00203753	0.20346095	0.00445792	-0.89941329	-0.00027314
0.260000	-1.85375893	657.43572998	4.58103561	0.85302436	0.00203797	0.20341387	0.00527725	-1.06471801	-0.00032334
0.264000	-1.31919777	657.43853760	4.03969765	0.85304266	0.00203807	0.20339535	0.00489201	-0.98699290	-0.00029973
0.268000	-1.31570172	657.44067383	4.57765102	0.85325408	0.00203911	0.20341186	0.00483417	-0.97532356	-0.00029619
0.272000	-0.78580320	657.70135498	3.49843812	0.85297441	0.00203772	0.20344231	0.00504216	-1.01728654	-0.00030893
0.276000	-0.78373617	657.96716309	4.03647184	0.85330731	0.00203938	0.20339341	0.00444883	-0.89757770	-0.00027258
0.280000	-1.85377038	657.43804932	4.58103657	0.85323560	0.00203902	0.20341198	0.00527265	-1.06378984	-0.00032306
0.284000	-0.78243774	657.70520020	4.03639269	0.85318428	0.00203879	0.20332874	0.00445037	-0.89788938	-0.00027268
0.288000	-0.78242779	657.70318604	4.03639174	0.85318422	0.00203875	0.20345990	0.00445198	-0.89821476	-0.00027277
0.292000	-1.31699896	657.70239258	4.57773018	0.85316598	0.00203870	0.20334725	0.00483546	-0.97558343	-0.00029627
0.296000	-1.31921768	657.44256592	4.03969908	0.85325253	0.00203915	0.20326331	0.00488675	-0.98593098	-0.00029941
0.300000	-1.32051647	657.70458984	4.03977871	0.85337555	0.00203974	0.20332804	0.00488503	-0.98558408	-0.00029931
0.304000	-0.78582317	657.70538330	3.49843931	0.85318416	0.00203880	0.20331034	0.00503711	-1.01626813	-0.00030862
0.308000	-1.85507607	657.70147705	4.58111620	0.85314620	0.00203864	0.20321728	0.00527324	-1.06390822	-0.00032309
0.312000	-1.31583226	657.44238281	4.57765198	0.85325265	0.00203915	0.20328173	0.00570762	-1.15154684	-0.00034971
0.316000	-1.85379851	657.44372559	4.58103800	0.85344410	0.00204013	0.20314981	0.00526630	-1.06250823	-0.00032267
0.320000	-0.77986032	657.18524170	4.03623438	0.85335767	0.00203969	0.20319760	0.00444546	-0.89689940	-0.00027237
0.324000	-1.85509610	657.70550537	4.58111763	0.85335594	0.00203972	0.20308530	0.00526777	-1.06280375	-0.00032276
0.328000	-1.32052612	657.70654297	4.03977919	0.85337567	0.00203978	0.20319688	0.00488377	-0.98532933	-0.00029923
0.332000	-1.85978985	657.96960449	4.04324436	0.85347891	0.00204035	0.20300058	0.00444442	-0.89668816	-0.00027231
0.336000	-1.85381818	657.44769287	4.58103943	0.85365391	0.00204121	0.20301779	0.00526083	-1.06140351	-0.00032233
0.340000	-1.32314169	658.23425293	4.03993940	0.85362005	0.00204103	0.20306523	0.00487785	-0.98413533	-0.00029887
0.344000	-1.32184327	657.97229004	4.03985977	0.85349727	0.00204044	0.20300046	0.00487956	-0.98448133	-0.00029897
0.348000	-1.32172120	657.97229004	4.03985929	0.85349727	0.00204044	0.20300046	0.00400489	-0.80801129	-0.00024538
0.352000	-1.86369419	658.75732422	4.04348373	0.85363644	0.00204115	0.20293473	0.00444096	-0.89599031	-0.00027210
0.356000	-1.85901999	658.49719238	4.58135796	0.85372329	0.00204160	0.20288752	0.00525841	-1.06091666	-0.00032218
0.360000	-1.85641408	657.97143555	4.58119822	0.85368860	0.00204139	0.20301814	0.00526008	-1.06125212	-0.00032229
0.364000	-1.32447004	658.50225830	4.04002094	0.85395241	0.00204274	0.20286714	0.00486962	-0.98247504	-0.00029836
0.368000	-1.85563457	658.49700928	5.11931133	0.85372341	0.00204159	0.20290589	0.00467013	-0.94222671	-0.00028614
0.372000	-1.85565424	658.50097656	5.11931229	0.85393286	0.00204267	0.20277408	0.00466410	-0.94101042	-0.00028577
0.376000	-1.85901845	658.49688721	4.58135796	0.85351241	0.00204059	0.20275840	0.00526209	-1.06165898	-0.00032241
0.380000	-1.32707441	659.02770996	4.04018021	0.85398537	0.00204294	0.20273779	0.00486775	-0.98209769	-0.00029825
0.384000	-1.86034799	658.76507568	4.58143950	0.85405540	0.00204330	0.20268957	0.00524982	-1.05918324	-0.00032166
0.388000	-1.32576716	658.76397705	4.04010010	0.85386425	0.00204232	0.20280285	0.00487068	-0.98268896	-0.00029843
0.392000	-1.32447731	658.50372314	4.04002142	0.85374022	0.00204177	0.20260808	0.00487117	-0.98278755	-0.00029846
0.396000	-1.32708430	659.02972412	4.04018116	0.85398549	0.00204298	0.20260690	0.00486649	-0.98184341	-0.00029817
0.400000	-1.85905814	658.50488281	4.58136034	0.85393143	0.00204275	0.20249477	0.00525116	-1.05945277	-0.00032174
0.404000	-1.32370770	659.03131104	4.57813454	0.85398418	0.00204301	0.20249544	0.00568417	-1.14681661	-0.00034827
0.408000	-1.85697019	658.76647949	5.11939287	0.85384339	0.00204233	0.20244901	0.00466401	-0.94099283	-0.00028576
0.412000	-1.86038518	658.77258301	4.58144188	0.85426199	0.00204445	0.20229806	0.00470933	-0.95013654	-0.00028854
0.416000	-1.32711279	659.03546143	4.04018259	0.85419345	0.00204409	0.20234536	0.00486002	-0.98053771	-0.00029777
0.420000	-2.39362812	658.50378418	5.12269878	0.85391176	0.00204269	0.20238334	0.00510260	-1.02948046	-0.00031264
